# xmcd
#
# Track frame offsets: 
#        150
#        16087
#        32593
#        49102
#        66427
#        85655
#        104705
#        122223
#        141915
#        157976
#        175000
#        192951
#
# Disc length: 2805 seconds
#
# Revision: 0
# Processed by: cddbd v1.5.2PL0 Copyright (c) Steve Scherf et al.
# Submitted via: ExactAudioCopy v0.99pb5
#
DISCID=9d0af30c
DTITLE=Saint Germain Des Prés - Electronis Blues [CD 2)
DYEAR=2014
DGENRE=Blues
TTITLE0=Dark Rainy City - C.C. Miles
TTITLE1=Strange Love - Deep B. feat. JLM
TTITLE2=I Know - Klub Rider feat. KS
TTITLE3=Moonshine Blues - Meloscience Corp.
TTITLE4=Your Long Dream - Index
TTITLE5=Poisoned Girl - Lazy Action
TTITLE6=Old Blues - Jules Renauld
TTITLE7=Seventy Seven - CCB feat. Benjamin
TTITLE8=Alone - Speechless Project
TTITLE9=Set Me Free - Jonas Kjell
TTITLE10=Indigo - Rever Sound
TTITLE11=Little Bird - Leila Dean
EXTD=
EXTT0=
EXTT1=
EXTT2=
EXTT3=
EXTT4=
EXTT5=
EXTT6=
EXTT7=
EXTT8=
EXTT9=
EXTT10=
EXTT11=
PLAYORDER=
